<svg xmlns="http://www.w3.org/2000/svg" xmlns:svg="http://www.w3.org/2000/svg" id="svg20" width="282.56" height="283.84" content="%3Cmxfile%20host%3D%22app.diagrams.net%22%20modified%3D%222022-06-21T15%3A23%3A40.015Z%22%20agent%3D%225.0%20(Windows%20NT%2010.0%3B%20Win64%3B%20x64)%20AppleWebKit%2F537.36%20(KHTML%2C%20like%20Gecko)%20Chrome%2F102.0.0.0%20Safari%2F537.36%22%20etag%3D%22VHKzPx2GRWx1zkVdUXdo%22%20version%3D%2220.0.1%22%20type%3D%22device%22%3E%3Cdiagram%20id%3D%22R-0EqqzK07mogTyQkmf8%22%20name%3D%22Page-1%22%3E5ZdNb8MgDIZ%2FTY6VkrBm3bVZt10mTephx4kGWlBJSAlt0v76kcbka6q0HaZUIpfg18bAYwsJD8Vp9apwzt4locILfVJ56NkLw8BHC%2FOrlXOjzEMQdooTCOqENb9QOxPUIye0GARqKYXm%2BVBMZJbRRA80rJQsh2FbKYar5ngHK%2FqdsE6woD%2FCPjnRrFEX8170G%2BU7ZlcOfPCk2AaDUDBMZNmT0MpDsZJSN6O0iqmo4VkuzbyXG952Y4pm%2BjcTLpfi8PVBZohE6UxGG3Q6bGaQ5YTFEQ4Mm9VnS8BkMbCNsSwZ13Sd46T2lKbeRmM6FcYKzBAXeVOBLa%2BoWXS55ULEUkh1TYTi2Def0Qut5J5aTyazOnmL5xqxpzphYMAWqdK0unn2oCVqWpHKlGp1NiEwIbRVgS4MIrDLXk1BYr1yWg1DF%2B3azB1oMwDWf%2BAeusEd3Rt35Ab3cb%2BHU3N%2FcIP7w731%2B9wN7uN7ZvJ%2Bj9zgPu73ybk%2FusF9fL%2Bjqbkv3OA%2Bvmcm5%2F7kBvfxPfOP3I3Zvcmuvt7LFq2%2BAQ%3D%3D%3C%2Fdiagram%3E%3C%2Fmxfile%3E" version="1.1" viewBox="0 0 211.92 212.88"><path id="path2" fill="#C00" fill-opacity="1" fill-rule="nonzero" d="M 61.054688 31.089844 C 61.054688 32.070313 61.003906 33.046875 60.910156 34.023438 C 60.8125 35.003906 60.667969 35.972656 60.476563 36.933594 C 60.285156 37.898438 60.046875 38.847656 59.761719 39.785156 C 59.476563 40.726563 59.148438 41.648438 58.773438 42.554688 C 58.398438 43.460938 57.976563 44.347656 57.515625 45.214844 C 57.050781 46.078125 56.546875 46.917969 56.003906 47.734375 C 55.457031 48.550781 54.875 49.339844 54.25 50.097656 C 53.628906 50.855469 52.96875 51.582031 52.277344 52.277344 C 51.582031 52.96875 50.855469 53.628906 50.097656 54.25 C 49.339844 54.875 48.550781 55.457031 47.734375 56.003906 C 46.917969 56.546875 46.078125 57.050781 45.214844 57.515625 C 44.347656 57.976563 43.460938 58.398438 42.554688 58.773438 C 41.648438 59.148438 40.726563 59.476563 39.785156 59.761719 C 38.847656 60.046875 37.898438 60.285156 36.933594 60.476563 C 35.972656 60.667969 35.003906 60.8125 34.023438 60.910156 C 33.046875 61.003906 32.070313 61.054688 31.089844 61.054688 C 30.105469 61.054688 29.128906 61.003906 28.152344 60.910156 C 27.175781 60.8125 26.203125 60.667969 25.242188 60.476563 C 24.28125 60.285156 23.328125 60.046875 22.390625 59.761719 C 21.449219 59.476563 20.527344 59.148438 19.621094 58.773438 C 18.714844 58.398438 17.828125 57.976563 16.964844 57.515625 C 16.097656 57.050781 15.257813 56.546875 14.441406 56.003906 C 13.625 55.457031 12.835938 54.875 12.078125 54.25 C 11.320313 53.628906 10.59375 52.96875 9.898438 52.277344 C 9.207031 51.582031 8.546875 50.855469 7.925781 50.097656 C 7.304688 49.339844 6.71875 48.550781 6.171875 47.734375 C 5.628906 46.917969 5.125 46.078125 4.660156 45.214844 C 4.199219 44.347656 3.78125 43.460938 3.40625 42.554688 C 3.027344 41.648438 2.699219 40.726563 2.414063 39.785156 C 2.128906 38.847656 1.890625 37.898438 1.699219 36.933594 C 1.507813 35.972656 1.363281 35.003906 1.269531 34.023438 C 1.171875 33.046875 1.125 32.070313 1.125 31.089844 C 1.125 30.105469 1.171875 29.128906 1.269531 28.152344 C 1.363281 27.175781 1.507813 26.203125 1.699219 25.242188 C 1.890625 24.28125 2.128906 23.328125 2.414063 22.390625 C 2.699219 21.449219 3.027344 20.527344 3.40625 19.621094 C 3.78125 18.714844 4.199219 17.828125 4.660156 16.964844 C 5.125 16.097656 5.628906 15.257813 6.171875 14.441406 C 6.71875 13.625 7.304688 12.835938 7.925781 12.078125 C 8.546875 11.320313 9.207031 10.59375 9.898438 9.898438 C 10.59375 9.207031 11.320313 8.546875 12.078125 7.925781 C 12.835938 7.304688 13.625 6.71875 14.441406 6.171875 C 15.257813 5.628906 16.097656 5.125 16.964844 4.660156 C 17.828125 4.199219 18.714844 3.78125 19.621094 3.40625 C 20.527344 3.027344 21.449219 2.699219 22.390625 2.414063 C 23.328125 2.128906 24.28125 1.890625 25.242188 1.699219 C 26.203125 1.507813 27.175781 1.363281 28.152344 1.269531 C 29.128906 1.171875 30.105469 1.125 31.089844 1.125 C 32.070313 1.125 33.046875 1.171875 34.023438 1.269531 C 35.003906 1.363281 35.972656 1.507813 36.933594 1.699219 C 37.898438 1.890625 38.847656 2.128906 39.785156 2.414063 C 40.726563 2.699219 41.648438 3.027344 42.554688 3.40625 C 43.460938 3.78125 44.347656 4.199219 45.214844 4.660156 C 46.078125 5.125 46.917969 5.628906 47.734375 6.171875 C 48.550781 6.71875 49.339844 7.304688 50.097656 7.925781 C 50.855469 8.546875 51.582031 9.207031 52.277344 9.898438 C 52.96875 10.59375 53.628906 11.320313 54.25 12.078125 C 54.875 12.835938 55.457031 13.625 56.003906 14.441406 C 56.546875 15.257813 57.050781 16.097656 57.515625 16.964844 C 57.976563 17.828125 58.398438 18.714844 58.773438 19.621094 C 59.148438 20.527344 59.476563 21.449219 59.761719 22.390625 C 60.046875 23.328125 60.285156 24.28125 60.476563 25.242188 C 60.667969 26.203125 60.8125 27.175781 60.910156 28.152344 C 61.003906 29.128906 61.054688 30.105469 61.054688 31.089844 Z M 61.054688 31.089844"/><path id="path4" fill="#C00" fill-opacity="1" fill-rule="nonzero" d="M 135.964844 31.089844 C 135.964844 32.070313 135.917969 33.046875 135.820313 34.023438 C 135.722656 35.003906 135.582031 35.972656 135.390625 36.933594 C 135.199219 37.898438 134.960938 38.847656 134.675781 39.785156 C 134.390625 40.726563 134.058594 41.648438 133.683594 42.554688 C 133.308594 43.460938 132.890625 44.347656 132.425781 45.214844 C 131.964844 46.078125 131.460938 46.917969 130.914063 47.734375 C 130.371094 48.550781 129.785156 49.339844 129.164063 50.097656 C 128.539063 50.855469 127.882813 51.582031 127.1875 52.277344 C 126.496094 52.96875 125.769531 53.628906 125.007813 54.25 C 124.25 54.875 123.464844 55.457031 122.648438 56.003906 C 121.832031 56.546875 120.992188 57.050781 120.125 57.515625 C 119.257813 57.976563 118.375 58.398438 117.46875 58.773438 C 116.558594 59.148438 115.636719 59.476563 114.699219 59.761719 C 113.757813 60.046875 112.808594 60.285156 111.847656 60.476563 C 110.882813 60.667969 109.914063 60.8125 108.9375 60.910156 C 107.960938 61.003906 106.980469 61.054688 106 61.054688 C 105.019531 61.054688 104.039063 61.003906 103.0625 60.910156 C 102.085938 60.8125 101.117188 60.667969 100.152344 60.476563 C 99.191406 60.285156 98.242188 60.046875 97.300781 59.761719 C 96.363281 59.476563 95.441406 59.148438 94.53125 58.773438 C 93.625 58.398438 92.742188 57.976563 91.875 57.515625 C 91.007813 57.050781 90.167969 56.546875 89.351563 56.003906 C 88.535156 55.457031 87.75 54.875 86.992188 54.25 C 86.230469 53.628906 85.503906 52.96875 84.8125 52.277344 C 84.117188 51.582031 83.460938 50.855469 82.835938 50.097656 C 82.214844 49.339844 81.628906 48.550781 81.085938 47.734375 C 80.539063 46.917969 80.035156 46.078125 79.574219 45.214844 C 79.109375 44.347656 78.691406 43.460938 78.316406 42.554688 C 77.941406 41.648438 77.609375 40.726563 77.324219 39.785156 C 77.039063 38.847656 76.800781 37.898438 76.609375 36.933594 C 76.417969 35.972656 76.277344 35.003906 76.179688 34.023438 C 76.082031 33.046875 76.035156 32.070313 76.035156 31.089844 C 76.035156 30.105469 76.082031 29.128906 76.179688 28.152344 C 76.277344 27.175781 76.417969 26.203125 76.609375 25.242188 C 76.800781 24.28125 77.039063 23.328125 77.324219 22.390625 C 77.609375 21.449219 77.941406 20.527344 78.316406 19.621094 C 78.691406 18.714844 79.109375 17.828125 79.574219 16.964844 C 80.035156 16.097656 80.539063 15.257813 81.085938 14.441406 C 81.628906 13.625 82.214844 12.835938 82.835938 12.078125 C 83.460938 11.320313 84.117188 10.59375 84.8125 9.898438 C 85.503906 9.207031 86.230469 8.546875 86.992188 7.925781 C 87.75 7.304688 88.535156 6.71875 89.351563 6.171875 C 90.167969 5.628906 91.007813 5.125 91.875 4.660156 C 92.742188 4.199219 93.625 3.78125 94.53125 3.40625 C 95.441406 3.027344 96.363281 2.699219 97.300781 2.414063 C 98.242188 2.128906 99.191406 1.890625 100.152344 1.699219 C 101.117188 1.507813 102.085938 1.363281 103.0625 1.269531 C 104.039063 1.171875 105.019531 1.125 106 1.125 C 106.980469 1.125 107.960938 1.171875 108.9375 1.269531 C 109.914063 1.363281 110.882813 1.507813 111.847656 1.699219 C 112.808594 1.890625 113.757813 2.128906 114.699219 2.414063 C 115.636719 2.699219 116.558594 3.027344 117.46875 3.40625 C 118.375 3.78125 119.257813 4.199219 120.125 4.660156 C 120.992188 5.125 121.832031 5.628906 122.648438 6.171875 C 123.464844 6.71875 124.25 7.304688 125.007813 7.925781 C 125.769531 8.546875 126.496094 9.207031 127.1875 9.898438 C 127.882813 10.59375 128.539063 11.320313 129.164063 12.078125 C 129.785156 12.835938 130.371094 13.625 130.914063 14.441406 C 131.460938 15.257813 131.964844 16.097656 132.425781 16.964844 C 132.890625 17.828125 133.308594 18.714844 133.683594 19.621094 C 134.058594 20.527344 134.390625 21.449219 134.675781 22.390625 C 134.960938 23.328125 135.199219 24.28125 135.390625 25.242188 C 135.582031 26.203125 135.722656 27.175781 135.820313 28.152344 C 135.917969 29.128906 135.964844 30.105469 135.964844 31.089844 Z M 135.964844 31.089844"/><path id="path6" fill="#C00" fill-opacity="1" fill-rule="nonzero" d="M 61.054688 106 C 61.054688 106.980469 61.003906 107.960938 60.910156 108.9375 C 60.8125 109.914063 60.667969 110.882813 60.476563 111.847656 C 60.285156 112.808594 60.046875 113.757813 59.761719 114.699219 C 59.476563 115.636719 59.148438 116.558594 58.773438 117.46875 C 58.398438 118.375 57.976563 119.257813 57.515625 120.125 C 57.050781 120.992188 56.546875 121.832031 56.003906 122.648438 C 55.457031 123.464844 54.875 124.25 54.25 125.007813 C 53.628906 125.769531 52.96875 126.496094 52.277344 127.1875 C 51.582031 127.882813 50.855469 128.539063 50.097656 129.164063 C 49.339844 129.785156 48.550781 130.371094 47.734375 130.914063 C 46.917969 131.460938 46.078125 131.964844 45.214844 132.425781 C 44.347656 132.890625 43.460938 133.308594 42.554688 133.683594 C 41.648438 134.058594 40.726563 134.390625 39.785156 134.675781 C 38.847656 134.960938 37.898438 135.199219 36.933594 135.390625 C 35.972656 135.582031 35.003906 135.722656 34.023438 135.820313 C 33.046875 135.917969 32.070313 135.964844 31.089844 135.964844 C 30.105469 135.964844 29.128906 135.917969 28.152344 135.820313 C 27.175781 135.722656 26.203125 135.582031 25.242188 135.390625 C 24.28125 135.199219 23.328125 134.960938 22.390625 134.675781 C 21.449219 134.390625 20.527344 134.058594 19.621094 133.683594 C 18.714844 133.308594 17.828125 132.890625 16.964844 132.425781 C 16.097656 131.964844 15.257813 131.460938 14.441406 130.914063 C 13.625 130.371094 12.835938 129.785156 12.078125 129.164063 C 11.320313 128.539063 10.59375 127.882813 9.898438 127.1875 C 9.207031 126.496094 8.546875 125.769531 7.925781 125.007813 C 7.304688 124.25 6.71875 123.464844 6.171875 122.648438 C 5.628906 121.832031 5.125 120.992188 4.660156 120.125 C 4.199219 119.257813 3.78125 118.375 3.40625 117.46875 C 3.027344 116.558594 2.699219 115.636719 2.414063 114.699219 C 2.128906 113.757813 1.890625 112.808594 1.699219 111.847656 C 1.507813 110.882813 1.363281 109.914063 1.269531 108.9375 C 1.171875 107.960938 1.125 106.980469 1.125 106 C 1.125 105.019531 1.171875 104.039063 1.269531 103.0625 C 1.363281 102.085938 1.507813 101.117188 1.699219 100.152344 C 1.890625 99.191406 2.128906 98.242188 2.414063 97.300781 C 2.699219 96.363281 3.027344 95.441406 3.40625 94.53125 C 3.78125 93.625 4.199219 92.742188 4.660156 91.875 C 5.125 91.007813 5.628906 90.167969 6.171875 89.351563 C 6.71875 88.535156 7.304688 87.75 7.925781 86.992188 C 8.546875 86.230469 9.207031 85.503906 9.898438 84.8125 C 10.59375 84.117188 11.320313 83.460938 12.078125 82.835938 C 12.835938 82.214844 13.625 81.628906 14.441406 81.085938 C 15.257813 80.539063 16.097656 80.035156 16.964844 79.574219 C 17.828125 79.109375 18.714844 78.691406 19.621094 78.316406 C 20.527344 77.941406 21.449219 77.609375 22.390625 77.324219 C 23.328125 77.039063 24.28125 76.800781 25.242188 76.609375 C 26.203125 76.417969 27.175781 76.277344 28.152344 76.179688 C 29.128906 76.082031 30.105469 76.035156 31.089844 76.035156 C 32.070313 76.035156 33.046875 76.082031 34.023438 76.179688 C 35.003906 76.277344 35.972656 76.417969 36.933594 76.609375 C 37.898438 76.800781 38.847656 77.039063 39.785156 77.324219 C 40.726563 77.609375 41.648438 77.941406 42.554688 78.316406 C 43.460938 78.691406 44.347656 79.109375 45.214844 79.574219 C 46.078125 80.035156 46.917969 80.539063 47.734375 81.085938 C 48.550781 81.628906 49.339844 82.214844 50.097656 82.835938 C 50.855469 83.460938 51.582031 84.117188 52.277344 84.8125 C 52.96875 85.503906 53.628906 86.230469 54.25 86.992188 C 54.875 87.75 55.457031 88.535156 56.003906 89.351563 C 56.546875 90.167969 57.050781 91.007813 57.515625 91.875 C 57.976563 92.742188 58.398438 93.625 58.773438 94.53125 C 59.148438 95.441406 59.476563 96.363281 59.761719 97.300781 C 60.046875 98.242188 60.285156 99.191406 60.476563 100.152344 C 60.667969 101.117188 60.8125 102.085938 60.910156 103.0625 C 61.003906 104.039063 61.054688 105.019531 61.054688 106 Z M 61.054688 106"/><path id="path8" fill="#C00" fill-opacity="1" fill-rule="nonzero" d="M 210.875 31.089844 C 210.875 32.070313 210.828125 33.046875 210.730469 34.023438 C 210.636719 35.003906 210.492188 35.972656 210.300781 36.933594 C 210.109375 37.898438 209.871094 38.847656 209.585938 39.785156 C 209.300781 40.726563 208.972656 41.648438 208.59375 42.554688 C 208.21875 43.460938 207.800781 44.347656 207.339844 45.214844 C 206.875 46.078125 206.371094 46.917969 205.828125 47.734375 C 205.28125 48.550781 204.695313 49.339844 204.074219 50.097656 C 203.453125 50.855469 202.792969 51.582031 202.101563 52.277344 C 201.40625 52.96875 200.679688 53.628906 199.921875 54.25 C 199.164063 54.875 198.375 55.457031 197.558594 56.003906 C 196.742188 56.546875 195.902344 57.050781 195.035156 57.515625 C 194.171875 57.976563 193.285156 58.398438 192.378906 58.773438 C 191.472656 59.148438 190.550781 59.476563 189.609375 59.761719 C 188.671875 60.046875 187.71875 60.285156 186.757813 60.476563 C 185.796875 60.667969 184.824219 60.8125 183.847656 60.910156 C 182.871094 61.003906 181.894531 61.054688 180.910156 61.054688 C 179.929688 61.054688 178.953125 61.003906 177.972656 60.910156 C 176.996094 60.8125 176.027344 60.667969 175.066406 60.476563 C 174.101563 60.285156 173.152344 60.046875 172.214844 59.761719 C 171.273438 59.476563 170.351563 59.148438 169.445313 58.773438 C 168.539063 58.398438 167.652344 57.976563 166.785156 57.515625 C 165.921875 57.050781 165.082031 56.546875 164.265625 56.003906 C 163.449219 55.457031 162.660156 54.875 161.902344 54.25 C 161.144531 53.628906 160.417969 52.96875 159.722656 52.277344 C 159.03125 51.582031 158.371094 50.855469 157.75 50.097656 C 157.125 49.339844 156.542969 48.550781 155.996094 47.734375 C 155.453125 46.917969 154.949219 46.078125 154.484375 45.214844 C 154.023438 44.347656 153.601563 43.460938 153.226563 42.554688 C 152.851563 41.648438 152.523438 40.726563 152.238281 39.785156 C 151.953125 38.847656 151.714844 37.898438 151.523438 36.933594 C 151.332031 35.972656 151.1875 35.003906 151.089844 34.023438 C 150.996094 33.046875 150.945313 32.070313 150.945313 31.089844 C 150.945313 30.105469 150.996094 29.128906 151.089844 28.152344 C 151.1875 27.175781 151.332031 26.203125 151.523438 25.242188 C 151.714844 24.28125 151.953125 23.328125 152.238281 22.390625 C 152.523438 21.449219 152.851563 20.527344 153.226563 19.621094 C 153.601563 18.714844 154.023438 17.828125 154.484375 16.964844 C 154.949219 16.097656 155.453125 15.257813 155.996094 14.441406 C 156.542969 13.625 157.125 12.835938 157.75 12.078125 C 158.371094 11.320313 159.03125 10.59375 159.722656 9.898438 C 160.417969 9.207031 161.144531 8.546875 161.902344 7.925781 C 162.660156 7.304688 163.449219 6.71875 164.265625 6.171875 C 165.082031 5.628906 165.921875 5.125 166.785156 4.660156 C 167.652344 4.199219 168.539063 3.78125 169.445313 3.40625 C 170.351563 3.027344 171.273438 2.699219 172.214844 2.414063 C 173.152344 2.128906 174.101563 1.890625 175.066406 1.699219 C 176.027344 1.507813 176.996094 1.363281 177.972656 1.269531 C 178.953125 1.171875 179.929688 1.125 180.910156 1.125 C 181.894531 1.125 182.871094 1.171875 183.847656 1.269531 C 184.824219 1.363281 185.796875 1.507813 186.757813 1.699219 C 187.71875 1.890625 188.671875 2.128906 189.609375 2.414063 C 190.550781 2.699219 191.472656 3.027344 192.378906 3.40625 C 193.285156 3.78125 194.171875 4.199219 195.035156 4.660156 C 195.902344 5.125 196.742188 5.628906 197.558594 6.171875 C 198.375 6.71875 199.164063 7.304688 199.921875 7.925781 C 200.679688 8.546875 201.40625 9.207031 202.101563 9.898438 C 202.792969 10.59375 203.453125 11.320313 204.074219 12.078125 C 204.695313 12.835938 205.28125 13.625 205.828125 14.441406 C 206.371094 15.257813 206.875 16.097656 207.339844 16.964844 C 207.800781 17.828125 208.21875 18.714844 208.59375 19.621094 C 208.972656 20.527344 209.300781 21.449219 209.585938 22.390625 C 209.871094 23.328125 210.109375 24.28125 210.300781 25.242188 C 210.492188 26.203125 210.636719 27.175781 210.730469 28.152344 C 210.828125 29.128906 210.875 30.105469 210.875 31.089844 Z M 210.875 31.089844"/><path id="path10" fill="#C00" fill-opacity="1" fill-rule="nonzero" d="M 135.964844 106 C 135.964844 106.980469 135.917969 107.960938 135.820313 108.9375 C 135.722656 109.914063 135.582031 110.882813 135.390625 111.847656 C 135.199219 112.808594 134.960938 113.757813 134.675781 114.699219 C 134.390625 115.636719 134.058594 116.558594 133.683594 117.46875 C 133.308594 118.375 132.890625 119.257813 132.425781 120.125 C 131.964844 120.992188 131.460938 121.832031 130.914063 122.648438 C 130.371094 123.464844 129.785156 124.25 129.164063 125.007813 C 128.539063 125.769531 127.882813 126.496094 127.1875 127.1875 C 126.496094 127.882813 125.769531 128.539063 125.007813 129.164063 C 124.25 129.785156 123.464844 130.371094 122.648438 130.914063 C 121.832031 131.460938 120.992188 131.964844 120.125 132.425781 C 119.257813 132.890625 118.375 133.308594 117.46875 133.683594 C 116.558594 134.058594 115.636719 134.390625 114.699219 134.675781 C 113.757813 134.960938 112.808594 135.199219 111.847656 135.390625 C 110.882813 135.582031 109.914063 135.722656 108.9375 135.820313 C 107.960938 135.917969 106.980469 135.964844 106 135.964844 C 105.019531 135.964844 104.039063 135.917969 103.0625 135.820313 C 102.085938 135.722656 101.117188 135.582031 100.152344 135.390625 C 99.191406 135.199219 98.242188 134.960938 97.300781 134.675781 C 96.363281 134.390625 95.441406 134.058594 94.53125 133.683594 C 93.625 133.308594 92.742188 132.890625 91.875 132.425781 C 91.007813 131.964844 90.167969 131.460938 89.351563 130.914063 C 88.535156 130.371094 87.75 129.785156 86.992188 129.164063 C 86.230469 128.539063 85.503906 127.882813 84.8125 127.1875 C 84.117188 126.496094 83.460938 125.769531 82.835938 125.007813 C 82.214844 124.25 81.628906 123.464844 81.085938 122.648438 C 80.539063 121.832031 80.035156 120.992188 79.574219 120.125 C 79.109375 119.257813 78.691406 118.375 78.316406 117.46875 C 77.941406 116.558594 77.609375 115.636719 77.324219 114.699219 C 77.039063 113.757813 76.800781 112.808594 76.609375 111.847656 C 76.417969 110.882813 76.277344 109.914063 76.179688 108.9375 C 76.082031 107.960938 76.035156 106.980469 76.035156 106 C 76.035156 105.019531 76.082031 104.039063 76.179688 103.0625 C 76.277344 102.085938 76.417969 101.117188 76.609375 100.152344 C 76.800781 99.191406 77.039063 98.242188 77.324219 97.300781 C 77.609375 96.363281 77.941406 95.441406 78.316406 94.53125 C 78.691406 93.625 79.109375 92.742188 79.574219 91.875 C 80.035156 91.007813 80.539063 90.167969 81.085938 89.351563 C 81.628906 88.535156 82.214844 87.75 82.835938 86.992188 C 83.460938 86.230469 84.117188 85.503906 84.8125 84.8125 C 85.503906 84.117188 86.230469 83.460938 86.992188 82.835938 C 87.75 82.214844 88.535156 81.628906 89.351563 81.085938 C 90.167969 80.539063 91.007813 80.035156 91.875 79.574219 C 92.742188 79.109375 93.625 78.691406 94.53125 78.316406 C 95.441406 77.941406 96.363281 77.609375 97.300781 77.324219 C 98.242188 77.039063 99.191406 76.800781 100.152344 76.609375 C 101.117188 76.417969 102.085938 76.277344 103.0625 76.179688 C 104.039063 76.082031 105.019531 76.035156 106 76.035156 C 106.980469 76.035156 107.960938 76.082031 108.9375 76.179688 C 109.914063 76.277344 110.882813 76.417969 111.847656 76.609375 C 112.808594 76.800781 113.757813 77.039063 114.699219 77.324219 C 115.636719 77.609375 116.558594 77.941406 117.46875 78.316406 C 118.375 78.691406 119.257813 79.109375 120.125 79.574219 C 120.992188 80.035156 121.832031 80.539063 122.648438 81.085938 C 123.464844 81.628906 124.25 82.214844 125.007813 82.835938 C 125.769531 83.460938 126.496094 84.117188 127.1875 84.8125 C 127.882813 85.503906 128.539063 86.230469 129.164063 86.992188 C 129.785156 87.75 130.371094 88.535156 130.914063 89.351563 C 131.460938 90.167969 131.964844 91.007813 132.425781 91.875 C 132.890625 92.742188 133.308594 93.625 133.683594 94.53125 C 134.058594 95.441406 134.390625 96.363281 134.675781 97.300781 C 134.960938 98.242188 135.199219 99.191406 135.390625 100.152344 C 135.582031 101.117188 135.722656 102.085938 135.820313 103.0625 C 135.917969 104.039063 135.964844 105.019531 135.964844 106 Z M 135.964844 106"/><path id="path12" fill="#C00" fill-opacity="1" fill-rule="nonzero" d="M 210.875 106 C 210.875 106.980469 210.828125 107.960938 210.730469 108.9375 C 210.636719 109.914063 210.492188 110.882813 210.300781 111.847656 C 210.109375 112.808594 209.871094 113.757813 209.585938 114.699219 C 209.300781 115.636719 208.972656 116.558594 208.59375 117.46875 C 208.21875 118.375 207.800781 119.257813 207.339844 120.125 C 206.875 120.992188 206.371094 121.832031 205.828125 122.648438 C 205.28125 123.464844 204.695313 124.25 204.074219 125.007813 C 203.453125 125.769531 202.792969 126.496094 202.101563 127.1875 C 201.40625 127.882813 200.679688 128.539063 199.921875 129.164063 C 199.164063 129.785156 198.375 130.371094 197.558594 130.914063 C 196.742188 131.460938 195.902344 131.964844 195.035156 132.425781 C 194.171875 132.890625 193.285156 133.308594 192.378906 133.683594 C 191.472656 134.058594 190.550781 134.390625 189.609375 134.675781 C 188.671875 134.960938 187.71875 135.199219 186.757813 135.390625 C 185.796875 135.582031 184.824219 135.722656 183.847656 135.820313 C 182.871094 135.917969 181.894531 135.964844 180.910156 135.964844 C 179.929688 135.964844 178.953125 135.917969 177.972656 135.820313 C 176.996094 135.722656 176.027344 135.582031 175.066406 135.390625 C 174.101563 135.199219 173.152344 134.960938 172.214844 134.675781 C 171.273438 134.390625 170.351563 134.058594 169.445313 133.683594 C 168.539063 133.308594 167.652344 132.890625 166.785156 132.425781 C 165.921875 131.964844 165.082031 131.460938 164.265625 130.914063 C 163.449219 130.371094 162.660156 129.785156 161.902344 129.164063 C 161.144531 128.539063 160.417969 127.882813 159.722656 127.1875 C 159.03125 126.496094 158.371094 125.769531 157.75 125.007813 C 157.125 124.25 156.542969 123.464844 155.996094 122.648438 C 155.453125 121.832031 154.949219 120.992188 154.484375 120.125 C 154.023438 119.257813 153.601563 118.375 153.226563 117.46875 C 152.851563 116.558594 152.523438 115.636719 152.238281 114.699219 C 151.953125 113.757813 151.714844 112.808594 151.523438 111.847656 C 151.332031 110.882813 151.1875 109.914063 151.089844 108.9375 C 150.996094 107.960938 150.945313 106.980469 150.945313 106 C 150.945313 105.019531 150.996094 104.039063 151.089844 103.0625 C 151.1875 102.085938 151.332031 101.117188 151.523438 100.152344 C 151.714844 99.191406 151.953125 98.242188 152.238281 97.300781 C 152.523438 96.363281 152.851563 95.441406 153.226563 94.53125 C 153.601563 93.625 154.023438 92.742188 154.484375 91.875 C 154.949219 91.007813 155.453125 90.167969 155.996094 89.351563 C 156.542969 88.535156 157.125 87.75 157.75 86.992188 C 158.371094 86.230469 159.03125 85.503906 159.722656 84.8125 C 160.417969 84.117188 161.144531 83.460938 161.902344 82.835938 C 162.660156 82.214844 163.449219 81.628906 164.265625 81.085938 C 165.082031 80.539063 165.921875 80.035156 166.785156 79.574219 C 167.652344 79.109375 168.539063 78.691406 169.445313 78.316406 C 170.351563 77.941406 171.273438 77.609375 172.214844 77.324219 C 173.152344 77.039063 174.101563 76.800781 175.066406 76.609375 C 176.027344 76.417969 176.996094 76.277344 177.972656 76.179688 C 178.953125 76.082031 179.929688 76.035156 180.910156 76.035156 C 181.894531 76.035156 182.871094 76.082031 183.847656 76.179688 C 184.824219 76.277344 185.796875 76.417969 186.757813 76.609375 C 187.71875 76.800781 188.671875 77.039063 189.609375 77.324219 C 190.550781 77.609375 191.472656 77.941406 192.378906 78.316406 C 193.285156 78.691406 194.171875 79.109375 195.035156 79.574219 C 195.902344 80.035156 196.742188 80.539063 197.558594 81.085938 C 198.375 81.628906 199.164063 82.214844 199.921875 82.835938 C 200.679688 83.460938 201.40625 84.117188 202.101563 84.8125 C 202.792969 85.503906 203.453125 86.230469 204.074219 86.992188 C 204.695313 87.75 205.28125 88.535156 205.828125 89.351563 C 206.371094 90.167969 206.875 91.007813 207.339844 91.875 C 207.800781 92.742188 208.21875 93.625 208.59375 94.53125 C 208.972656 95.441406 209.300781 96.363281 209.585938 97.300781 C 209.871094 98.242188 210.109375 99.191406 210.300781 100.152344 C 210.492188 101.117188 210.636719 102.085938 210.730469 103.0625 C 210.828125 104.039063 210.875 105.019531 210.875 106 Z M 210.875 106"/><path id="path14" fill="#C00" fill-opacity="1" fill-rule="nonzero" d="M 61.054688 180.910156 C 61.054688 181.894531 61.003906 182.871094 60.910156 183.847656 C 60.8125 184.824219 60.667969 185.796875 60.476563 186.757813 C 60.285156 187.71875 60.046875 188.671875 59.761719 189.609375 C 59.476563 190.550781 59.148438 191.472656 58.773438 192.378906 C 58.398438 193.285156 57.976563 194.171875 57.515625 195.035156 C 57.050781 195.902344 56.546875 196.742188 56.003906 197.558594 C 55.457031 198.375 54.875 199.164063 54.25 199.921875 C 53.628906 200.679688 52.96875 201.40625 52.277344 202.101563 C 51.582031 202.792969 50.855469 203.453125 50.097656 204.074219 C 49.339844 204.695313 48.550781 205.28125 47.734375 205.828125 C 46.917969 206.371094 46.078125 206.875 45.214844 207.339844 C 44.347656 207.800781 43.460938 208.21875 42.554688 208.59375 C 41.648438 208.972656 40.726563 209.300781 39.785156 209.585938 C 38.847656 209.871094 37.898438 210.109375 36.933594 210.300781 C 35.972656 210.492188 35.003906 210.636719 34.023438 210.730469 C 33.046875 210.828125 32.070313 210.875 31.089844 210.875 C 30.105469 210.875 29.128906 210.828125 28.152344 210.730469 C 27.175781 210.636719 26.203125 210.492188 25.242188 210.300781 C 24.28125 210.109375 23.328125 209.871094 22.390625 209.585938 C 21.449219 209.300781 20.527344 208.972656 19.621094 208.59375 C 18.714844 208.21875 17.828125 207.800781 16.964844 207.339844 C 16.097656 206.875 15.257813 206.371094 14.441406 205.828125 C 13.625 205.28125 12.835938 204.695313 12.078125 204.074219 C 11.320313 203.453125 10.59375 202.792969 9.898438 202.101563 C 9.207031 201.40625 8.546875 200.679688 7.925781 199.921875 C 7.304688 199.164063 6.71875 198.375 6.171875 197.558594 C 5.628906 196.742188 5.125 195.902344 4.660156 195.035156 C 4.199219 194.171875 3.78125 193.285156 3.40625 192.378906 C 3.027344 191.472656 2.699219 190.550781 2.414063 189.609375 C 2.128906 188.671875 1.890625 187.71875 1.699219 186.757813 C 1.507813 185.796875 1.363281 184.824219 1.269531 183.847656 C 1.171875 182.871094 1.125 181.894531 1.125 180.910156 C 1.125 179.929688 1.171875 178.953125 1.269531 177.972656 C 1.363281 176.996094 1.507813 176.027344 1.699219 175.066406 C 1.890625 174.101563 2.128906 173.152344 2.414063 172.214844 C 2.699219 171.273438 3.027344 170.351563 3.40625 169.445313 C 3.78125 168.539063 4.199219 167.652344 4.660156 166.785156 C 5.125 165.921875 5.628906 165.082031 6.171875 164.265625 C 6.71875 163.449219 7.304688 162.660156 7.925781 161.902344 C 8.546875 161.144531 9.207031 160.417969 9.898438 159.722656 C 10.59375 159.03125 11.320313 158.371094 12.078125 157.75 C 12.835938 157.125 13.625 156.542969 14.441406 155.996094 C 15.257813 155.453125 16.097656 154.949219 16.964844 154.484375 C 17.828125 154.023438 18.714844 153.601563 19.621094 153.226563 C 20.527344 152.851563 21.449219 152.523438 22.390625 152.238281 C 23.328125 151.953125 24.28125 151.714844 25.242188 151.523438 C 26.203125 151.332031 27.175781 151.1875 28.152344 151.089844 C 29.128906 150.996094 30.105469 150.945313 31.089844 150.945313 C 32.070313 150.945313 33.046875 150.996094 34.023438 151.089844 C 35.003906 151.1875 35.972656 151.332031 36.933594 151.523438 C 37.898438 151.714844 38.847656 151.953125 39.785156 152.238281 C 40.726563 152.523438 41.648438 152.851563 42.554688 153.226563 C 43.460938 153.601563 44.347656 154.023438 45.214844 154.484375 C 46.078125 154.949219 46.917969 155.453125 47.734375 155.996094 C 48.550781 156.542969 49.339844 157.125 50.097656 157.75 C 50.855469 158.371094 51.582031 159.03125 52.277344 159.722656 C 52.96875 160.417969 53.628906 161.144531 54.25 161.902344 C 54.875 162.660156 55.457031 163.449219 56.003906 164.265625 C 56.546875 165.082031 57.050781 165.921875 57.515625 166.785156 C 57.976563 167.652344 58.398438 168.539063 58.773438 169.445313 C 59.148438 170.351563 59.476563 171.273438 59.761719 172.214844 C 60.046875 173.152344 60.285156 174.101563 60.476563 175.066406 C 60.667969 176.027344 60.8125 176.996094 60.910156 177.972656 C 61.003906 178.953125 61.054688 179.929688 61.054688 180.910156 Z M 61.054688 180.910156"/><path id="path16" fill="#C00" fill-opacity="1" fill-rule="nonzero" d="M 135.964844 180.910156 C 135.964844 181.894531 135.917969 182.871094 135.820313 183.847656 C 135.722656 184.824219 135.582031 185.796875 135.390625 186.757813 C 135.199219 187.71875 134.960938 188.671875 134.675781 189.609375 C 134.390625 190.550781 134.058594 191.472656 133.683594 192.378906 C 133.308594 193.285156 132.890625 194.171875 132.425781 195.035156 C 131.964844 195.902344 131.460938 196.742188 130.914063 197.558594 C 130.371094 198.375 129.785156 199.164063 129.164063 199.921875 C 128.539063 200.679688 127.882813 201.40625 127.1875 202.101563 C 126.496094 202.792969 125.769531 203.453125 125.007813 204.074219 C 124.25 204.695313 123.464844 205.28125 122.648438 205.828125 C 121.832031 206.371094 120.992188 206.875 120.125 207.339844 C 119.257813 207.800781 118.375 208.21875 117.46875 208.59375 C 116.558594 208.972656 115.636719 209.300781 114.699219 209.585938 C 113.757813 209.871094 112.808594 210.109375 111.847656 210.300781 C 110.882813 210.492188 109.914063 210.636719 108.9375 210.730469 C 107.960938 210.828125 106.980469 210.875 106 210.875 C 105.019531 210.875 104.039063 210.828125 103.0625 210.730469 C 102.085938 210.636719 101.117188 210.492188 100.152344 210.300781 C 99.191406 210.109375 98.242188 209.871094 97.300781 209.585938 C 96.363281 209.300781 95.441406 208.972656 94.53125 208.59375 C 93.625 208.21875 92.742188 207.800781 91.875 207.339844 C 91.007813 206.875 90.167969 206.371094 89.351563 205.828125 C 88.535156 205.28125 87.75 204.695313 86.992188 204.074219 C 86.230469 203.453125 85.503906 202.792969 84.8125 202.101563 C 84.117188 201.40625 83.460938 200.679688 82.835938 199.921875 C 82.214844 199.164063 81.628906 198.375 81.085938 197.558594 C 80.539063 196.742188 80.035156 195.902344 79.574219 195.035156 C 79.109375 194.171875 78.691406 193.285156 78.316406 192.378906 C 77.941406 191.472656 77.609375 190.550781 77.324219 189.609375 C 77.039063 188.671875 76.800781 187.71875 76.609375 186.757813 C 76.417969 185.796875 76.277344 184.824219 76.179688 183.847656 C 76.082031 182.871094 76.035156 181.894531 76.035156 180.910156 C 76.035156 179.929688 76.082031 178.953125 76.179688 177.972656 C 76.277344 176.996094 76.417969 176.027344 76.609375 175.066406 C 76.800781 174.101563 77.039063 173.152344 77.324219 172.214844 C 77.609375 171.273438 77.941406 170.351563 78.316406 169.445313 C 78.691406 168.539063 79.109375 167.652344 79.574219 166.785156 C 80.035156 165.921875 80.539063 165.082031 81.085938 164.265625 C 81.628906 163.449219 82.214844 162.660156 82.835938 161.902344 C 83.460938 161.144531 84.117188 160.417969 84.8125 159.722656 C 85.503906 159.03125 86.230469 158.371094 86.992188 157.75 C 87.75 157.125 88.535156 156.542969 89.351563 155.996094 C 90.167969 155.453125 91.007813 154.949219 91.875 154.484375 C 92.742188 154.023438 93.625 153.601563 94.53125 153.226563 C 95.441406 152.851563 96.363281 152.523438 97.300781 152.238281 C 98.242188 151.953125 99.191406 151.714844 100.152344 151.523438 C 101.117188 151.332031 102.085938 151.1875 103.0625 151.089844 C 104.039063 150.996094 105.019531 150.945313 106 150.945313 C 106.980469 150.945313 107.960938 150.996094 108.9375 151.089844 C 109.914063 151.1875 110.882813 151.332031 111.847656 151.523438 C 112.808594 151.714844 113.757813 151.953125 114.699219 152.238281 C 115.636719 152.523438 116.558594 152.851563 117.46875 153.226563 C 118.375 153.601563 119.257813 154.023438 120.125 154.484375 C 120.992188 154.949219 121.832031 155.453125 122.648438 155.996094 C 123.464844 156.542969 124.25 157.125 125.007813 157.75 C 125.769531 158.371094 126.496094 159.03125 127.1875 159.722656 C 127.882813 160.417969 128.539063 161.144531 129.164063 161.902344 C 129.785156 162.660156 130.371094 163.449219 130.914063 164.265625 C 131.460938 165.082031 131.964844 165.921875 132.425781 166.785156 C 132.890625 167.652344 133.308594 168.539063 133.683594 169.445313 C 134.058594 170.351563 134.390625 171.273438 134.675781 172.214844 C 134.960938 173.152344 135.199219 174.101563 135.390625 175.066406 C 135.582031 176.027344 135.722656 176.996094 135.820313 177.972656 C 135.917969 178.953125 135.964844 179.929688 135.964844 180.910156 Z M 135.964844 180.910156"/><path id="path18" fill="#C00" fill-opacity="1" fill-rule="nonzero" d="M 210.875 180.910156 C 210.875 181.894531 210.828125 182.871094 210.730469 183.847656 C 210.636719 184.824219 210.492188 185.796875 210.300781 186.757813 C 210.109375 187.71875 209.871094 188.671875 209.585938 189.609375 C 209.300781 190.550781 208.972656 191.472656 208.59375 192.378906 C 208.21875 193.285156 207.800781 194.171875 207.339844 195.035156 C 206.875 195.902344 206.371094 196.742188 205.828125 197.558594 C 205.28125 198.375 204.695313 199.164063 204.074219 199.921875 C 203.453125 200.679688 202.792969 201.40625 202.101563 202.101563 C 201.40625 202.792969 200.679688 203.453125 199.921875 204.074219 C 199.164063 204.695313 198.375 205.28125 197.558594 205.828125 C 196.742188 206.371094 195.902344 206.875 195.035156 207.339844 C 194.171875 207.800781 193.285156 208.21875 192.378906 208.59375 C 191.472656 208.972656 190.550781 209.300781 189.609375 209.585938 C 188.671875 209.871094 187.71875 210.109375 186.757813 210.300781 C 185.796875 210.492188 184.824219 210.636719 183.847656 210.730469 C 182.871094 210.828125 181.894531 210.875 180.910156 210.875 C 179.929688 210.875 178.953125 210.828125 177.972656 210.730469 C 176.996094 210.636719 176.027344 210.492188 175.066406 210.300781 C 174.101563 210.109375 173.152344 209.871094 172.214844 209.585938 C 171.273438 209.300781 170.351563 208.972656 169.445313 208.59375 C 168.539063 208.21875 167.652344 207.800781 166.785156 207.339844 C 165.921875 206.875 165.082031 206.371094 164.265625 205.828125 C 163.449219 205.28125 162.660156 204.695313 161.902344 204.074219 C 161.144531 203.453125 160.417969 202.792969 159.722656 202.101563 C 159.03125 201.40625 158.371094 200.679688 157.75 199.921875 C 157.125 199.164063 156.542969 198.375 155.996094 197.558594 C 155.453125 196.742188 154.949219 195.902344 154.484375 195.035156 C 154.023438 194.171875 153.601563 193.285156 153.226563 192.378906 C 152.851563 191.472656 152.523438 190.550781 152.238281 189.609375 C 151.953125 188.671875 151.714844 187.71875 151.523438 186.757813 C 151.332031 185.796875 151.1875 184.824219 151.089844 183.847656 C 150.996094 182.871094 150.945313 181.894531 150.945313 180.910156 C 150.945313 179.929688 150.996094 178.953125 151.089844 177.972656 C 151.1875 176.996094 151.332031 176.027344 151.523438 175.066406 C 151.714844 174.101563 151.953125 173.152344 152.238281 172.214844 C 152.523438 171.273438 152.851563 170.351563 153.226563 169.445313 C 153.601563 168.539063 154.023438 167.652344 154.484375 166.785156 C 154.949219 165.921875 155.453125 165.082031 155.996094 164.265625 C 156.542969 163.449219 157.125 162.660156 157.75 161.902344 C 158.371094 161.144531 159.03125 160.417969 159.722656 159.722656 C 160.417969 159.03125 161.144531 158.371094 161.902344 157.75 C 162.660156 157.125 163.449219 156.542969 164.265625 155.996094 C 165.082031 155.453125 165.921875 154.949219 166.785156 154.484375 C 167.652344 154.023438 168.539063 153.601563 169.445313 153.226563 C 170.351563 152.851563 171.273438 152.523438 172.214844 152.238281 C 173.152344 151.953125 174.101563 151.714844 175.066406 151.523438 C 176.027344 151.332031 176.996094 151.1875 177.972656 151.089844 C 178.953125 150.996094 179.929688 150.945313 180.910156 150.945313 C 181.894531 150.945313 182.871094 150.996094 183.847656 151.089844 C 184.824219 151.1875 185.796875 151.332031 186.757813 151.523438 C 187.71875 151.714844 188.671875 151.953125 189.609375 152.238281 C 190.550781 152.523438 191.472656 152.851563 192.378906 153.226563 C 193.285156 153.601563 194.171875 154.023438 195.035156 154.484375 C 195.902344 154.949219 196.742188 155.453125 197.558594 155.996094 C 198.375 156.542969 199.164063 157.125 199.921875 157.75 C 200.679688 158.371094 201.40625 159.03125 202.101563 159.722656 C 202.792969 160.417969 203.453125 161.144531 204.074219 161.902344 C 204.695313 162.660156 205.28125 163.449219 205.828125 164.265625 C 206.371094 165.082031 206.875 165.921875 207.339844 166.785156 C 207.800781 167.652344 208.21875 168.539063 208.59375 169.445313 C 208.972656 170.351563 209.300781 171.273438 209.585938 172.214844 C 209.871094 173.152344 210.109375 174.101563 210.300781 175.066406 C 210.492188 176.027344 210.636719 176.996094 210.730469 177.972656 C 210.828125 178.953125 210.875 179.929688 210.875 180.910156 Z M 210.875 180.910156"/></svg>